<?xml version="1.0" standalone="no"?><!DOCTYPE svg PUBLIC "-//W3C//DTD SVG 1.1//EN" "http://www.w3.org/Graphics/SVG/1.1/DTD/svg11.dtd"><svg t="1636292065138" class="icon" viewBox="0 0 1024 1024" version="1.1" xmlns="http://www.w3.org/2000/svg" p-id="1306" xmlns:xlink="http://www.w3.org/1999/xlink" width="200" height="200"><defs><style type="text/css"></style></defs><path d="M528.625826 255.683592m-255.683592 0a255.683592 255.683592 0 1 0 511.367183 0 255.683592 255.683592 0 1 0-511.367183 0Z" fill="#cdcdcd" p-id="1307"></path><path d="M1005.475724 756.401553c0-68.126893-53.476223-123.584664-119.110201-123.584664-32.420679 0-63.10271 13.985892-85.257694 37.841172-22.180552-23.855279-52.900935-37.841172-85.257694-37.841172-65.659546 0-119.110201 55.432203-119.110201 123.584664 0 2.288368 0.217331 4.333837 0.39631 6.008564-0.025568 0.54972-0.063921 1.099439-0.063921 1.674728 0 12.068266 2.927577 25.32546 8.680458 39.400841 0.178979 0.511367 0.370741 1.00995 0.575288 1.457397 36.294286 87.060263 175.9998 187.211526 181.944444 191.81383 3.681844 2.838088 8.079601 4.231563 12.490143 4.231564 4.474463 0 8.897789-1.457396 12.617985-4.359405 5.088103-3.963096 124.262225-89.732156 171.550906-170.886129 1.802569-2.735814 3.132124-5.394924 4.321053-7.683292 0.370741-0.728698 0.70313-1.457396 1.099439-2.160526l0.153411-0.332389c0.15341-0.268468 0.332389-0.575288 0.511367-0.818187 2.838088-5.509981 5.088103-10.636437 6.890672-15.635052 4.909125-12.860885 7.312551-24.31551 7.312551-35.015868 0-0.818187-0.025568-1.546886-0.089489-2.160526 0.166194-1.380691 0.345173-3.27275 0.345173-5.53555z m0 0" fill="#cdcdcd" p-id="1308"></path><path d="M584.761158 806.643379c-0.242899-0.524151-0.447446-1.073871-0.664777-1.661944-6.571068-16.05693-9.907739-31.180614-9.907739-44.936391 0-0.664777 0.038353-1.291202 0.06392-1.917627-0.204547-1.917627-0.447446-4.244348-0.447446-6.85232 0-77.740596 60.954968-140.958364 135.844692-140.958364 36.907926 0 71.936578 15.954656 97.23647 43.15939 11.799798-12.707475 25.721769-22.960387 40.973296-30.272937-87.494925-70.018952-198.487172-111.88714-319.259317-111.88714-282.415311 0-511.367183 228.951872-511.367183 511.367184 0 0.447446 0.012784 0.882108 0.012784 1.31677h773.136044c-19.227406-14.25436-166.130414-122.613066-205.620744-217.356621z" fill="#cdcdcd" p-id="1309"></path></svg>